<svg width="207" height="58" viewBox="0 0 207 58" fill="none" xmlns="http://www.w3.org/2000/svg">
<path d="M67.96 23.04V37H65.16V31.06H59.18V37H56.38V23.04H59.18V28.78H65.16V23.04H67.96ZM81.0159 31.22C81.0159 31.62 80.9893 31.98 80.9359 32.3H72.8359C72.9026 33.1 73.1826 33.7267 73.6759 34.18C74.1693 34.6333 74.7759 34.86 75.4959 34.86C76.5359 34.86 77.2759 34.4133 77.7159 33.52H80.7359C80.4159 34.5867 79.8026 35.4667 78.8959 36.16C77.9893 36.84 76.8759 37.18 75.5559 37.18C74.4893 37.18 73.5293 36.9467 72.6759 36.48C71.8359 36 71.1759 35.3267 70.6959 34.46C70.2293 33.5933 69.9959 32.5933 69.9959 31.46C69.9959 30.3133 70.2293 29.3067 70.6959 28.44C71.1626 27.5733 71.8159 26.9067 72.6559 26.44C73.4959 25.9733 74.4626 25.74 75.5559 25.74C76.6093 25.74 77.5493 25.9667 78.3759 26.42C79.2159 26.8733 79.8626 27.52 80.3159 28.36C80.7826 29.1867 81.0159 30.14 81.0159 31.22ZM78.1159 30.42C78.1026 29.7 77.8426 29.1267 77.3359 28.7C76.8293 28.26 76.2093 28.04 75.4759 28.04C74.7826 28.04 74.1959 28.2533 73.7159 28.68C73.2493 29.0933 72.9626 29.6733 72.8559 30.42H78.1159ZM82.3397 31.42C82.3397 30.3 82.5597 29.3067 82.9997 28.44C83.453 27.5733 84.0597 26.9067 84.8197 26.44C85.593 25.9733 86.453 25.74 87.3997 25.74C88.2264 25.74 88.9464 25.9067 89.5597 26.24C90.1864 26.5733 90.6864 26.9933 91.0597 27.5V25.92H93.8797V37H91.0597V35.38C90.6997 35.9 90.1997 36.3333 89.5597 36.68C88.933 37.0133 88.2064 37.18 87.3797 37.18C86.4464 37.18 85.593 36.94 84.8197 36.46C84.0597 35.98 83.453 35.3067 82.9997 34.44C82.5597 33.56 82.3397 32.5533 82.3397 31.42ZM91.0597 31.46C91.0597 30.78 90.9264 30.2 90.6597 29.72C90.393 29.2267 90.033 28.8533 89.5797 28.6C89.1264 28.3333 88.6397 28.2 88.1197 28.2C87.5997 28.2 87.1197 28.3267 86.6797 28.58C86.2397 28.8333 85.8797 29.2067 85.5997 29.7C85.333 30.18 85.1997 30.7533 85.1997 31.42C85.1997 32.0867 85.333 32.6733 85.5997 33.18C85.8797 33.6733 86.2397 34.0533 86.6797 34.32C87.133 34.5867 87.613 34.72 88.1197 34.72C88.6397 34.72 89.1264 34.5933 89.5797 34.34C90.033 34.0733 90.393 33.7 90.6597 33.22C90.9264 32.7267 91.0597 32.14 91.0597 31.46ZM99.4144 22.2V37H96.6144V22.2H99.4144ZM105.441 28.22V33.58C105.441 33.9533 105.527 34.2267 105.701 34.4C105.887 34.56 106.194 34.64 106.621 34.64H107.921V37H106.161C103.801 37 102.621 35.8533 102.621 33.56V28.22H101.301V25.92H102.621V23.18H105.441V25.92H107.921V28.22H105.441ZM116.175 25.76C117.015 25.76 117.761 25.9467 118.415 26.32C119.068 26.68 119.575 27.22 119.935 27.94C120.308 28.6467 120.495 29.5 120.495 30.5V37H117.695V30.88C117.695 30 117.475 29.3267 117.035 28.86C116.595 28.38 115.995 28.14 115.235 28.14C114.461 28.14 113.848 28.38 113.395 28.86C112.955 29.3267 112.735 30 112.735 30.88V37H109.935V22.2H112.735V27.3C113.095 26.82 113.575 26.4467 114.175 26.18C114.775 25.9 115.441 25.76 116.175 25.76ZM124.577 24.6C124.084 24.6 123.671 24.4467 123.337 24.14C123.017 23.82 122.857 23.4267 122.857 22.96C122.857 22.4933 123.017 22.1067 123.337 21.8C123.671 21.48 124.084 21.32 124.577 21.32C125.071 21.32 125.477 21.48 125.797 21.8C126.131 22.1067 126.297 22.4933 126.297 22.96C126.297 23.4267 126.131 23.82 125.797 24.14C125.477 24.4467 125.071 24.6 124.577 24.6ZM125.957 25.92V37H123.157V25.92H125.957ZM132.964 37.18C132.057 37.18 131.244 37.02 130.524 36.7C129.804 36.3667 129.23 35.92 128.804 35.36C128.39 34.8 128.164 34.18 128.124 33.5H130.944C130.997 33.9267 131.204 34.28 131.564 34.56C131.937 34.84 132.397 34.98 132.944 34.98C133.477 34.98 133.89 34.8733 134.184 34.66C134.49 34.4467 134.644 34.1733 134.644 33.84C134.644 33.48 134.457 33.2133 134.084 33.04C133.724 32.8533 133.144 32.6533 132.344 32.44C131.517 32.24 130.837 32.0333 130.304 31.82C129.784 31.6067 129.33 31.28 128.944 30.84C128.57 30.4 128.384 29.8067 128.384 29.06C128.384 28.4467 128.557 27.8867 128.904 27.38C129.264 26.8733 129.77 26.4733 130.424 26.18C131.09 25.8867 131.87 25.74 132.764 25.74C134.084 25.74 135.137 26.0733 135.924 26.74C136.71 27.3933 137.144 28.28 137.224 29.4H134.544C134.504 28.96 134.317 28.6133 133.984 28.36C133.664 28.0933 133.23 27.96 132.684 27.96C132.177 27.96 131.784 28.0533 131.504 28.24C131.237 28.4267 131.104 28.6867 131.104 29.02C131.104 29.3933 131.29 29.68 131.664 29.88C132.037 30.0667 132.617 30.26 133.404 30.46C134.204 30.66 134.864 30.8667 135.384 31.08C135.904 31.2933 136.35 31.6267 136.724 32.08C137.11 32.52 137.31 33.1067 137.324 33.84C137.324 34.48 137.144 35.0533 136.784 35.56C136.437 36.0667 135.93 36.4667 135.264 36.76C134.61 37.04 133.844 37.18 132.964 37.18ZM145.862 25.76C146.702 25.76 147.449 25.9467 148.102 26.32C148.756 26.68 149.262 27.22 149.622 27.94C149.996 28.6467 150.182 29.5 150.182 30.5V37H147.382V30.88C147.382 30 147.162 29.3267 146.722 28.86C146.282 28.38 145.682 28.14 144.922 28.14C144.149 28.14 143.536 28.38 143.082 28.86C142.642 29.3267 142.422 30 142.422 30.88V37H139.622V22.2H142.422V27.3C142.782 26.82 143.262 26.4467 143.862 26.18C144.462 25.9 145.129 25.76 145.862 25.76Z" fill="#7A40F2"/>
<path fill-rule="evenodd" clip-rule="evenodd" d="M27.2106 15.963H34.2237C34.2237 15.963 34.4904 23.6676 27.2106 23.6676C25.8577 23.6676 24.663 23.0214 23.9386 22.0333C23.6494 21.6384 23.0621 21.5883 22.7109 21.9331L21.207 23.4076V28.3935L19.2058 29.0243V18.5922C18.6084 18.259 18.2052 17.6387 18.2052 16.926C18.2052 15.8281 19.1598 14.944 20.3155 15.0028C21.349 15.0548 22.1855 15.8878 22.2076 16.8837C22.2236 17.6137 21.8163 18.2522 21.207 18.5922V20.2092L24.2218 17.2525V17.2545C24.9552 16.4619 26.0218 15.963 27.2106 15.963ZM16.4646 22.0091C16.7553 21.6128 17.3459 21.5635 17.6991 21.9086L18.2052 22.4045V19.1943L16.1799 17.2118V17.2127C15.4424 16.4182 14.3698 15.9175 13.1746 15.9175H6.12256C6.12256 15.9175 6.54715 23.6505 13.1746 23.6505C14.5348 23.6505 15.7362 23.0019 16.4646 22.0091ZM17.0846 29.737L17.0735 29.7409C16.2278 30.0161 15.483 30.3966 14.858 30.8592C13.5346 29.8529 13.3178 28.694 13.3178 28.045C13.3178 27.1265 13.5336 26.2525 14.5445 25.4161C15.6019 24.517 16.9777 24.4639 17.4807 25.2539C17.9434 25.9802 17.4908 27.141 16.4707 27.848C16.1159 28.0933 15.7399 28.2497 15.3801 28.3212C15.5051 28.7085 15.8851 29.1025 16.4647 29.4347C16.6693 29.5516 16.8356 29.6375 17.0846 29.737ZM22.9962 25.6724C23.4796 24.714 24.8029 24.7807 25.8182 25.8689C26.7908 26.8823 26.9972 27.9412 27.0001 29.0552C27.0001 29.9539 26.7288 31.6588 24.9085 32.9728C24.4929 33.2724 24.18 33.4538 23.558 33.7241C24.8891 34.5361 25.6593 35.8186 25.6593 37.2825C25.6593 39.4016 24.2003 40.6127 22.5516 41.3323C23.3672 42.0379 23.7974 42.9588 23.7974 43.9078C23.7974 44.5244 23.7334 45.1715 22.91 45.9251L22.909 45.9239C22.8606 45.9707 22.8005 46 22.7336 46C22.5786 46 22.4527 45.8479 22.4527 45.6607C22.4527 45.5986 22.4673 45.5413 22.4915 45.491L22.4905 45.4898C23.1134 44.2272 22.413 43.4304 21.2999 42.8664V44.8287C21.2999 45.4746 20.8659 45.9988 20.3311 45.9988C19.7964 45.9988 19.3623 45.4746 19.3623 44.8287V42.8652C18.2037 43.4526 17.607 44.1313 18.1689 45.4898C18.1931 45.5401 18.2076 45.5975 18.2076 45.6595C18.2076 45.8467 18.0816 45.9988 17.9266 45.9988C17.8598 45.9988 17.7988 45.9696 17.7503 45.9228L17.7494 45.9239C16.8988 45.2031 16.8426 44.4777 16.8426 43.8926C16.8426 42.8734 17.2805 42.0063 18.0952 41.3241C18.4861 40.9984 18.7252 40.8704 19.7104 40.3428L19.7108 40.3426L19.7115 40.3422C19.8907 40.2463 20.0944 40.1371 20.3282 40.0112C20.6815 39.8208 21.001 39.6517 21.2894 39.4991C23.1543 38.5123 23.7189 38.2135 23.7189 37.2801C23.7189 36.8355 23.1938 36.1708 22.1921 35.759C21.9583 35.6645 21.7346 35.5752 21.5201 35.4896L21.2979 35.4009V36.8928L19.3604 37.9366V35.3997C19.0785 35.5121 18.7801 35.6314 18.4634 35.759C17.4617 36.1697 16.9366 36.8355 16.9366 37.2801C16.9366 37.8874 17.173 38.242 17.9393 38.7101C17.2737 39.1044 16.7041 39.597 16.2478 40.1645C15.5222 39.4671 15.0001 38.5146 15.0001 37.2801C15.0001 35.5471 16.0793 34.0681 17.8927 33.3239C19.1909 32.8032 20.179 32.4124 20.9463 32.1104C23.1841 31.227 23.4467 31.117 23.9727 30.7379C24.5298 30.3353 24.895 29.8579 25.0151 29.3887C24.6692 29.3021 24.3079 29.1125 23.9669 28.8153C22.9865 27.9588 22.5525 26.5523 22.9962 25.6724Z" fill="url(#paint0_linear_99_3743)"/>
<defs>
<linearGradient id="paint0_linear_99_3743" x1="27.7543" y1="2.46048" x2="-4.87151" y2="2.46048" gradientUnits="userSpaceOnUse">
<stop stop-color="#804AF3"/>
<stop offset="0.348958" stop-color="#71DDB1"/>
<stop offset="1" stop-color="#F4FAFF"/>
</linearGradient>
</defs>
</svg>
