<svg width="29" height="28" viewBox="0 0 29 28" fill="none" xmlns="http://www.w3.org/2000/svg">
<path d="M19.3354 26.192C20.4304 26.192 21.3181 25.3043 21.3181 24.2092C21.3181 23.1142 20.4304 22.2264 19.3354 22.2264C18.2403 22.2264 17.3526 23.1142 17.3526 24.2092C17.3526 25.3043 18.2403 26.192 19.3354 26.192Z" fill="white"/>
<path d="M10.2712 26.192C11.3662 26.192 12.2539 25.3043 12.2539 24.2092C12.2539 23.1142 11.3662 22.2264 10.2712 22.2264C9.17609 22.2264 8.28836 23.1142 8.28836 24.2092C8.28836 25.3043 9.17609 26.192 10.2712 26.192Z" fill="white"/>
<path opacity="0.4" d="M6.40754 5.16313L6.18094 7.93903C6.13562 8.47156 6.55484 8.91343 7.08736 8.91343H24.4339C24.9098 8.91343 25.3064 8.55086 25.3404 8.07499C25.4877 6.06954 23.9581 4.438 21.9526 4.438H8.05042C7.93712 3.93947 7.71051 3.46359 7.35927 3.06703C6.80409 2.46653 6.01099 2.1153 5.19521 2.1153H3.18976C2.72522 2.1153 2.33999 2.50052 2.33999 2.96506C2.33999 3.4296 2.72522 3.81483 3.18976 3.81483H5.16122C5.51246 3.81483 5.84103 3.96213 6.07897 4.2114C6.3169 4.47199 6.4302 4.81189 6.40754 5.16313Z" fill="white"/>
<path d="M24.162 10.613H6.78147C6.3056 10.613 5.92037 10.9755 5.87504 11.4401L5.46716 16.3687C5.30853 18.2949 6.82679 19.9604 8.76426 19.9604H21.3635C23.063 19.9604 24.5586 18.5668 24.6832 16.8673L25.0571 11.5761C25.1025 11.0549 24.6946 10.613 24.162 10.613Z" fill="white"/>
</svg>
