<svg width="37" height="37" viewBox="0 0 37 37" fill="none" xmlns="http://www.w3.org/2000/svg">
<rect x="0.380436" y="0.531616" width="36.1979" height="36.1979" rx="18.0989" fill="#21A092"/>
<path d="M15.5166 20.7047C15.5166 21.8531 16.3979 22.7789 17.4929 22.7789H19.7274C20.6799 22.7789 21.4544 21.9688 21.4544 20.9717C21.4544 19.8856 20.9826 19.5028 20.2793 19.2536L16.6917 18.0073C15.9884 17.758 15.5166 17.3752 15.5166 16.2891C15.5166 15.292 16.2911 14.4819 17.2436 14.4819H19.4781C20.5731 14.4819 21.4544 15.4078 21.4544 16.5562" stroke="url(#paint0_linear_12_166)" stroke-width="1.85404" stroke-linecap="round" stroke-linejoin="round"/>
<path d="M18.4794 13.2892V23.972" stroke="url(#paint1_linear_12_166)" stroke-width="1.85404" stroke-linecap="round" stroke-linejoin="round"/>
<path d="M18.4794 27.5328C23.396 27.5328 27.3817 23.5471 27.3817 18.6305C27.3817 13.7139 23.396 9.72815 18.4794 9.72815C13.5628 9.72815 9.57706 13.7139 9.57706 18.6305C9.57706 23.5471 13.5628 27.5328 18.4794 27.5328Z" stroke="url(#paint2_linear_12_166)" stroke-width="1.85404" stroke-linecap="round" stroke-linejoin="round"/>
<defs>
<linearGradient id="paint0_linear_12_166" x1="18.4855" y1="14.4819" x2="18.4855" y2="22.7789" gradientUnits="userSpaceOnUse">
<stop stop-color="#172C37"/>
<stop offset="1" stop-color="#2F5062"/>
</linearGradient>
<linearGradient id="paint1_linear_12_166" x1="18.9794" y1="13.2892" x2="18.9794" y2="23.972" gradientUnits="userSpaceOnUse">
<stop stop-color="#172C37"/>
<stop offset="1" stop-color="#2F5062"/>
</linearGradient>
<linearGradient id="paint2_linear_12_166" x1="18.4794" y1="9.72815" x2="18.4794" y2="27.5328" gradientUnits="userSpaceOnUse">
<stop stop-color="#172C37"/>
<stop offset="1" stop-color="#2F5062"/>
</linearGradient>
</defs>
</svg>
