<svg width="192" height="161" viewBox="0 0 192 161" fill="none" xmlns="http://www.w3.org/2000/svg">
<g clip-path="url(#clip0_89_5497)">
<path d="M82.7734 4.05426C82.7629 4.03563 82.7536 4.01633 82.7456 3.99648L82.7584 3.98364C82.7651 4.0068 82.7701 4.0304 82.7734 4.05426Z" fill="#71DDB1"/>
<path d="M82.8241 4.30801C82.8044 4.23858 82.7902 4.16769 82.7817 4.09601C82.8162 4.16103 82.831 4.23472 82.8241 4.30801Z" fill="#71DDB1"/>
<path d="M92.3473 77.306C92.2943 77.4268 92.2498 77.5455 92.1968 77.6706C88.2833 87.2 85.5527 98.6014 84.9189 112.246C74.0539 85.6312 56.0296 72.748 39.9749 66.5618C40.2632 57.6684 41.4991 42.203 46.5469 32.7012C46.5469 32.7012 55.0947 34.7003 65.8537 43.1295C74.3422 49.7799 84.2192 60.4456 92.3473 77.306Z" fill="#71DDB1"/>
<path d="M93.95 77.1618L93.5833 77.0791C93.6363 76.9519 93.6829 76.8311 93.7338 76.7081C93.8059 76.8565 93.88 77.024 93.95 77.1618Z" fill="#71DDB1"/>
<path d="M93.95 77.1618L93.5833 77.0791C93.6363 76.9519 93.6829 76.8311 93.7338 76.7081C93.8059 76.8565 93.88 77.024 93.95 77.1618Z" fill="#71DDB1"/>
<path d="M86.9242 138.252C86.8203 138.252 86.7122 138.252 86.6105 138.252C46.0718 138.252 12.491 107.531 6.47446 67.3949C6.06954 63.969 6.00806 61.9232 6.00806 61.9232C6.00806 61.9232 20.6361 60.4392 37.5961 67.1151C52.6375 73.0363 69.5169 85.3641 79.6908 110.83V110.849C79.7523 111.001 79.8137 111.152 79.8689 111.311C82.9089 119.017 85.33 127.919 86.9115 138.194C86.9179 138.214 86.9242 138.233 86.9242 138.252Z" fill="#71DDB1"/>
<path d="M181.292 63.1529C177.419 108.612 140.541 144.306 95.5759 144.489C95.6014 142.424 96.248 119.089 110.333 97.9336C116.629 88.387 125.087 80.4593 135.021 74.7938C135.303 74.6305 135.576 74.4758 135.869 74.321C136.214 74.1239 136.568 73.9352 136.929 73.7465C137.02 73.6935 137.117 73.6447 137.217 73.5917C137.563 73.4094 137.908 73.2271 138.262 73.0511C138.444 72.9579 138.627 72.8625 138.818 72.7755C139.195 72.5805 139.581 72.3897 139.967 72.2074C140.352 72.0251 140.692 71.8639 141.058 71.6965L141.188 71.635C141.463 71.5057 141.737 71.3848 142.017 71.264C142.364 71.1007 142.71 70.9523 143.062 70.8039C144.088 70.3587 145.146 69.9347 146.225 69.5319L146.598 69.3899C147.054 69.2139 147.512 69.0465 147.976 68.8832C157.304 65.576 168.317 63.4751 181.292 63.1529Z" fill="#71DDB1"/>
<path d="M120.094 42.0631C110.908 49.0209 100.56 59.9877 93.7338 76.7081C85.6121 59.5149 75.7625 48.6351 67.291 41.8532C72.2942 32.5252 83.6341 13.566 93.95 4.69809C93.95 4.69809 109.568 20.1253 120.094 42.0631Z" fill="#71DDB1"/>
<path d="M147.05 67.1088C146.596 67.2678 146.146 67.4331 145.697 67.6049L145.332 67.7448C144.272 68.1412 143.238 68.5589 142.231 68.9956C141.885 69.1419 141.546 69.286 141.207 69.445C140.931 69.5659 140.662 69.6846 140.393 69.8096L140.263 69.869C139.905 70.0344 139.547 70.1997 139.203 70.3736C138.86 70.5474 138.447 70.7361 138.073 70.929C137.889 71.0138 137.709 71.1071 137.531 71.2004C137.183 71.3721 136.844 71.5502 136.505 71.7304C136.409 71.7834 136.312 71.8279 136.223 71.8809C135.877 72.0675 135.532 72.2519 135.19 72.4448C134.908 72.5975 134.639 72.748 134.363 72.907C124.615 78.4639 116.314 86.2405 110.134 95.6058C96.32 116.356 95.684 139.248 95.6586 141.273L95.6268 141.213C93.9732 130.469 91.444 121.162 88.264 113.106L88.5142 112.286L88.0796 112.623C88.0796 112.623 88.0796 112.623 88.0796 112.61C88.7007 98.9618 91.3719 87.5498 95.2049 78.0246L95.5632 78.1031L95.3512 77.66C102.048 61.2576 112.199 50.5007 121.215 43.6764C131.834 35.6416 140.887 33.0404 140.887 33.0404C145.716 39.0103 146.818 57.272 147.05 67.1088Z" fill="#71DDB1"/>
<path d="M85.896 114.623V114.601C85.896 114.601 85.896 114.614 85.896 114.623Z" stroke="#CCDDE2" stroke-width="0.84164" stroke-miterlimit="10"/>
<path d="M93.7315 76.9159C93.6764 77.0452 93.6276 77.1724 93.5725 77.3081C89.4406 87.5816 86.5596 99.8882 85.8875 114.607C74.4183 85.8962 55.3871 71.9954 38.4292 65.3237C38.7324 55.7286 40.0383 39.0463 45.3722 28.794C45.3722 28.794 54.397 30.95 65.7581 40.0448C74.7215 47.2189 85.1498 58.7263 93.7315 76.9159Z" stroke="#CCDDE2" stroke-width="0.84164" stroke-miterlimit="10"/>
<path d="M93.9605 77.395L93.5725 77.3081C93.6276 77.1724 93.6764 77.0452 93.7315 76.9159C93.8078 77.0727 93.8799 77.236 93.9605 77.395Z" stroke="#CCDDE2" stroke-width="0.84164" stroke-miterlimit="10"/>
<path d="M85.896 114.623V114.601C85.896 114.601 85.896 114.614 85.896 114.623Z" stroke="#CCDDE2" stroke-width="0.84164" stroke-miterlimit="10"/>
<path d="M93.9605 77.395L93.5725 77.3081C93.6276 77.1724 93.6764 77.0452 93.7315 76.9159C93.8078 77.0727 93.8799 77.236 93.9605 77.395Z" stroke="#CCDDE2" stroke-width="0.84164" stroke-miterlimit="10"/>
<path opacity="0.9" d="M23.8161 111.61C23.0677 110.696 22.3321 109.761 21.624 108.811C12.0923 96.1304 5.81343 81.3068 3.3369 65.6375C2.71998 61.7982 2.81538 59.4704 2.81538 59.4704C2.81538 59.4704 19.2984 57.7999 38.4314 65.3237C55.3914 71.9975 74.4163 85.8877 85.8876 114.607V114.631C85.9575 114.802 86.0296 114.974 86.0869 115.152C89.5213 123.844 92.2476 133.876 94.0326 145.468C94.0326 145.489 94.0326 145.511 94.0326 145.534C93.9118 145.534 93.7973 145.534 93.6765 145.534C70.0236 145.5 48.4526 136.066 32.188 120.654C30.492 119.049 28.8405 117.372 27.2632 115.636" stroke="#CCDDE2" stroke-width="0.84164" stroke-miterlimit="10"/>
<path d="M85.896 114.623V114.601C85.896 114.601 85.896 114.614 85.896 114.623Z" stroke="#CCDDE2" stroke-width="0.84164" stroke-miterlimit="10"/>
<path opacity="0.9" d="M184.747 59.4767C180.649 107.569 141.641 145.324 94.0708 145.517C94.0984 143.333 94.7831 118.648 109.68 96.2672C116.343 86.1689 125.292 77.783 135.801 71.7897C136.1 71.618 136.39 71.4547 136.693 71.2915C137.06 71.0795 137.433 70.8845 137.806 70.6831C137.902 70.6258 138.006 70.5771 138.11 70.5198C138.476 70.3269 138.843 70.134 139.216 69.9495C139.409 69.8478 139.602 69.7375 139.803 69.6549C140.204 69.4429 140.611 69.2499 141.02 69.057C141.429 68.8641 141.786 68.6924 142.174 68.5143L142.311 68.4486C142.602 68.3129 142.892 68.1857 143.189 68.0564C143.556 67.8847 143.92 67.7278 144.294 67.5709C145.379 67.1003 146.498 66.6508 147.639 66.2226L148.033 66.0721C148.517 65.8876 149 65.7074 149.492 65.5378C159.373 62.0313 171.025 59.8181 184.747 59.4767Z" stroke="#CCDDE2" stroke-width="0.84164" stroke-miterlimit="10"/>
<path d="M121.616 40.2674C111.9 47.6259 100.952 59.2266 93.7315 76.9159C85.1497 58.7263 74.7214 47.2189 65.7581 40.0448C71.0581 30.172 83.0488 10.121 93.9541 0.740021C93.9604 0.740021 110.469 17.0598 121.616 40.2674Z" stroke="#CCDDE2" stroke-width="0.84164" stroke-miterlimit="10"/>
<path d="M30.1231 92.8053C30.1253 92.7912 30.1253 92.7769 30.1231 92.7629C30.1231 92.748 30.1231 92.7332 30.1231 92.7056C30.1198 92.6817 30.1198 92.6575 30.1231 92.6335C30.1291 92.6844 30.139 92.7347 30.1528 92.7841C30.1496 92.7895 30.1453 92.7942 30.1402 92.7978C30.1351 92.8015 30.1293 92.804 30.1231 92.8053Z" fill="white"/>
<path d="M30.2015 106.511C29.8744 107.566 29.4566 108.591 28.9528 109.574C28.8087 109.852 28.6666 110.124 28.5098 110.395C27.9742 111.4 27.317 112.336 26.553 113.181C26.4173 113.136 26.2816 113.079 26.1608 113.03C26.1332 113.03 26.1099 113.009 26.0887 113C23.6189 111.923 21.7639 109.903 21.2127 107.633C20.7209 105.633 21.164 103.471 20.2142 101.595C19.044 99.284 15.8894 97.8382 15.4951 95.2263C15.1389 92.7841 17.3374 90.5432 16.9791 88.1519C16.572 85.4446 13.2458 83.8398 12.631 81.1983C12.2388 79.5574 12.5886 77.6642 12.4465 75.9725C12.2824 74.0815 11.9619 72.2074 11.4883 70.3693C11.7172 70.3545 11.9462 70.3481 12.1752 70.3396C16.8392 70.2612 21.4544 72.8836 22.9681 76.5788C24.1892 79.5638 23.568 83.0109 25.1877 85.8093C25.2858 85.9901 25.3956 86.1643 25.5163 86.3308C25.7288 86.6258 25.9574 86.9089 26.2011 87.1788L26.7162 87.7152C26.801 87.8 26.8943 87.8784 26.9791 87.9717C27.0639 88.065 27.1572 88.1434 27.2441 88.2367C28.0497 89.0062 28.8723 89.7843 29.4065 90.7065C29.4559 90.7865 29.4991 90.8701 29.5358 90.9566C29.5858 91.0404 29.6284 91.1284 29.663 91.2195C29.7091 91.3127 29.7502 91.4082 29.786 91.5057C29.8284 91.6117 29.8644 91.7177 29.8984 91.8343C29.9492 92.006 30.0001 92.1693 30.034 92.341C30.034 92.3834 30.034 92.4194 30.0489 92.4555C30.0637 92.4915 30.0489 92.483 30.0489 92.4979C30.052 92.5118 30.052 92.5263 30.0489 92.5403C30.052 92.5647 30.0569 92.5888 30.0637 92.6124V92.6272C30.0645 92.6538 30.0688 92.6802 30.0764 92.7056C30.0764 92.7332 30.0764 92.748 30.0764 92.7629C30.0786 92.7769 30.0786 92.7912 30.0764 92.8053V92.8201L29.5274 100.787C29.8793 102.714 30.7591 104.635 30.2015 106.511Z" fill="white"/>
<path d="M34.3481 87.1724C34.7064 85.4446 34.734 83.632 35.5481 81.9827C37.0617 78.9426 41.4841 76.7357 46.1205 76.5936H46.2053C46.6293 76.5936 47.0533 76.5936 47.4773 76.6148C46.9976 78.1954 46.6704 79.8182 46.5 81.4612C46.3431 82.924 46.712 84.5606 46.3071 85.9662C45.6562 88.2494 42.1943 89.6359 41.7745 91.97C41.4014 94.0391 43.6931 95.9747 43.3157 98.0798C42.9087 100.336 39.6248 101.584 38.4122 103.592C37.4327 105.214 37.8907 107.075 37.384 108.796C36.7904 110.76 34.84 112.509 32.2727 113.429C32.1073 113.486 31.9589 113.543 31.7935 113.594C31.7066 113.615 31.607 113.651 31.5222 113.672C31.4925 113.651 31.4649 113.622 31.4289 113.594C30.6 112.888 29.6714 111.697 28.9019 110.414L28.9591 109.6C29.4628 108.617 29.8806 107.592 30.2078 106.537C30.7653 104.66 29.8855 102.74 29.5718 100.813L30.1209 92.8456L30.2926 92.7035C30.3553 92.6574 30.4148 92.6071 30.4707 92.553C31.3187 91.8682 32.2345 91.211 32.8896 90.433C33.7037 89.4769 34.0831 88.4275 34.3248 87.3272" fill="white"/>
<path d="M34.3271 87.2869C34.3271 87.2509 34.342 87.2169 34.3483 87.1724L34.3271 87.2869Z" fill="white"/>
<path d="M34.3483 87.1661C34.3483 87.2106 34.3335 87.2445 34.3271 87.2806C34.0854 88.3808 33.7059 89.4302 32.8919 90.3864C32.2368 91.1644 31.3231 91.8216 30.4729 92.5064C30.4171 92.5605 30.3576 92.6108 30.2949 92.6569L30.1231 92.8053C30.1261 92.7963 30.1261 92.7867 30.1231 92.7777C30.1166 92.7533 30.1088 92.7292 30.0998 92.7056C30.0965 92.6817 30.0965 92.6575 30.0998 92.6336V92.6187C30.093 92.5951 30.0881 92.571 30.085 92.5466C30.0881 92.5327 30.0881 92.5182 30.085 92.5042C30.0882 92.4976 30.0898 92.4904 30.0898 92.483C30.0898 92.4757 30.0882 92.4684 30.085 92.4618C30.0797 92.4232 30.0719 92.385 30.0617 92.3474C30.0277 92.1756 29.9769 92.0124 29.926 91.8407C29.8921 91.7326 29.856 91.6181 29.8136 91.5121C29.7778 91.4146 29.7367 91.319 29.6907 91.2259C29.6606 91.1328 29.6178 91.0443 29.5635 90.963C29.5267 90.8765 29.4835 90.7929 29.4341 90.7128C28.8999 89.7906 28.0773 89.0168 27.2717 88.243C27.1848 88.1498 27.0937 88.0565 27.0067 87.978C26.9198 87.8996 26.8287 87.8063 26.7439 87.7215L26.2287 87.1852C25.985 86.9153 25.7564 86.6322 25.5439 86.3372C25.5439 86.3372 26.0188 78.084 30.2376 75.5866C34.2211 73.208 34.3483 85.7732 34.3483 87.1661Z" fill="white"/>
<path d="M34.3271 87.2869C34.3271 87.2509 34.342 87.2169 34.3483 87.1724L34.3271 87.2869Z" fill="white"/>
<path d="M30.1168 92.7777V92.8116C30.1189 92.7976 30.1189 92.7833 30.1168 92.7692C30.1168 92.7544 30.1168 92.7395 30.1168 92.712C30.1134 92.6881 30.1134 92.6638 30.1168 92.6399C30.1136 92.6858 30.1136 92.7318 30.1168 92.7777Z" fill="white"/>
<path d="M44.3949 79.2352C36.7905 87.4184 33.2162 104.675 31.8233 113.579C31.7089 114.332 31.6113 115.019 31.5181 115.638" fill="white"/>
<path d="M45.0967 120.651L41.5987 141.292C41.5158 141.856 41.2364 142.372 40.8097 142.75C40.383 143.128 39.8364 143.343 39.2667 143.357H20.9795C20.4049 143.342 19.8543 143.123 19.4269 142.738C18.9994 142.354 18.7231 141.83 18.6475 141.26L15.4209 120.651H45.0967Z" fill="white"/>
<path d="M48.4187 118.349C48.3868 118.96 48.1254 119.537 47.6868 119.964C47.2482 120.391 46.6646 120.636 46.0527 120.651H14.5135C13.9077 120.637 13.3293 120.396 12.8919 119.977C12.4545 119.558 12.1898 118.99 12.1497 118.385C12.0161 116.914 13.1122 115.629 14.5135 115.629H46.0527C47.4392 115.64 48.531 116.88 48.4187 118.349Z" fill="white"/>
<path d="M30.1381 92.8201C30.1376 92.774 30.1297 92.7281 30.1147 92.6844L30.1381 92.8201Z" fill="white"/>
<path d="M14.5093 73.4009C21.8084 82.8815 25.2428 102.869 26.5933 113.187C26.7078 114.082 26.8053 114.902 26.8922 115.636" fill="white"/>
<path d="M30.7805 83.4752C29.8667 86.2884 29.8222 89.1292 29.9325 90.9291C29.9616 91.5101 30.0232 92.0891 30.1169 92.6632" fill="white"/>
<path d="M30.1231 92.8053C30.1253 92.7912 30.1253 92.7769 30.1231 92.7629C30.1231 92.748 30.1231 92.7332 30.1231 92.7056C30.1198 92.6817 30.1198 92.6575 30.1231 92.6335C30.1291 92.6844 30.139 92.7347 30.1528 92.7841C30.1496 92.7895 30.1453 92.7942 30.1402 92.7978C30.1351 92.8015 30.1293 92.804 30.1231 92.8053Z" stroke="#CCDDE2" stroke-width="0.84164" stroke-miterlimit="10"/>
<path d="M30.2015 106.511C29.8744 107.566 29.4566 108.591 28.9528 109.574C28.8087 109.852 28.6666 110.124 28.5098 110.395C27.9742 111.4 27.317 112.336 26.553 113.181C26.4173 113.136 26.2816 113.079 26.1608 113.03C26.1332 113.03 26.1099 113.009 26.0887 113C23.6189 111.923 21.7639 109.903 21.2127 107.633C20.7209 105.633 21.164 103.471 20.2142 101.595C19.044 99.284 15.8894 97.8382 15.4951 95.2263C15.1389 92.7841 17.3374 90.5432 16.9791 88.1519C16.572 85.4446 13.2458 83.8398 12.631 81.1983C12.2388 79.5574 12.5886 77.6642 12.4465 75.9725C12.2824 74.0815 11.9619 72.2074 11.4883 70.3693C11.7172 70.3545 11.9462 70.3481 12.1752 70.3396C16.8392 70.2612 21.4544 72.8836 22.9681 76.5788C24.1892 79.5638 23.568 83.0109 25.1877 85.8093C25.2858 85.9901 25.3956 86.1643 25.5163 86.3308C25.7288 86.6258 25.9574 86.9089 26.2011 87.1788L26.7162 87.7152C26.801 87.8 26.8943 87.8784 26.9791 87.9717C27.0639 88.065 27.1572 88.1434 27.2441 88.2367C28.0497 89.0062 28.8723 89.7843 29.4065 90.7065C29.4559 90.7865 29.4991 90.8701 29.5358 90.9566C29.5858 91.0404 29.6284 91.1284 29.663 91.2195C29.7091 91.3127 29.7502 91.4082 29.786 91.5057C29.8284 91.6117 29.8644 91.7177 29.8984 91.8343C29.9492 92.006 30.0001 92.1693 30.034 92.341C30.034 92.3834 30.034 92.4194 30.0489 92.4555C30.0637 92.4915 30.0489 92.483 30.0489 92.4979C30.052 92.5118 30.052 92.5263 30.0489 92.5403C30.052 92.5647 30.0569 92.5888 30.0637 92.6124V92.6272C30.0645 92.6538 30.0688 92.6802 30.0764 92.7056V92.7056C30.0764 92.7332 30.0764 92.748 30.0764 92.7629C30.0786 92.7769 30.0786 92.7912 30.0764 92.8053V92.8201L29.5274 100.787C29.8793 102.714 30.7591 104.635 30.2015 106.511Z" stroke="#CCDDE2" stroke-width="0.84164" stroke-miterlimit="10"/>
<path d="M34.3481 87.1724C34.7064 85.4446 34.734 83.632 35.5481 81.9827C37.0617 78.9426 41.4841 76.7357 46.1205 76.5936H46.2053C46.6293 76.5936 47.0533 76.5936 47.4773 76.6148C46.9976 78.1954 46.6704 79.8182 46.5 81.4612C46.3431 82.924 46.712 84.5606 46.3071 85.9662C45.6562 88.2494 42.1943 89.6359 41.7745 91.97C41.4014 94.0391 43.6931 95.9747 43.3157 98.0798C42.9087 100.336 39.6248 101.584 38.4122 103.592C37.4327 105.214 37.8907 107.075 37.384 108.796C36.7904 110.76 34.84 112.509 32.2727 113.429C32.1073 113.486 31.9589 113.543 31.7935 113.594C31.7066 113.615 31.607 113.651 31.5222 113.672C31.4925 113.651 31.4649 113.622 31.4289 113.594C30.6 112.888 29.6714 111.697 28.9019 110.414L28.9591 109.6C29.4628 108.617 29.8806 107.592 30.2078 106.537C30.7653 104.66 29.8855 102.74 29.5718 100.813L30.1209 92.8456L30.2926 92.7035C30.3553 92.6574 30.4148 92.6071 30.4707 92.553C31.3187 91.8682 32.2345 91.211 32.8896 90.433C33.7037 89.4769 34.0831 88.4275 34.3248 87.3272" stroke="#CCDDE2" stroke-width="0.84164" stroke-miterlimit="10"/>
<path d="M34.3271 87.2869C34.3271 87.2509 34.342 87.2169 34.3483 87.1724" stroke="#CCDDE2" stroke-width="0.84164" stroke-miterlimit="10"/>
<path d="M34.3483 87.1661C34.3483 87.2106 34.3335 87.2445 34.3271 87.2806C34.0854 88.3808 33.7059 89.4302 32.8919 90.3864C32.2368 91.1644 31.3231 91.8216 30.4729 92.5064C30.4171 92.5605 30.3576 92.6108 30.2949 92.6569L30.1231 92.8053C30.1261 92.7963 30.1261 92.7867 30.1231 92.7777C30.1166 92.7533 30.1088 92.7292 30.0998 92.7056V92.7056C30.0965 92.6817 30.0965 92.6575 30.0998 92.6336V92.6187C30.093 92.5951 30.0881 92.571 30.085 92.5466C30.0881 92.5327 30.0881 92.5182 30.085 92.5042C30.0882 92.4976 30.0898 92.4904 30.0898 92.483C30.0898 92.4757 30.0882 92.4684 30.085 92.4618C30.0797 92.4232 30.0719 92.385 30.0617 92.3474C30.0277 92.1756 29.9769 92.0124 29.926 91.8407C29.8921 91.7326 29.856 91.6181 29.8136 91.5121C29.7778 91.4146 29.7367 91.319 29.6907 91.2259C29.6606 91.1328 29.6178 91.0443 29.5635 90.963C29.5267 90.8765 29.4835 90.7929 29.4341 90.7128C28.8999 89.7906 28.0773 89.0168 27.2717 88.243C27.1848 88.1498 27.0937 88.0565 27.0067 87.978C26.9198 87.8996 26.8287 87.8063 26.7439 87.7215L26.2287 87.1852C25.985 86.9153 25.7564 86.6322 25.5439 86.3372C25.5439 86.3372 26.0188 78.084 30.2376 75.5866C34.2211 73.208 34.3483 85.7732 34.3483 87.1661Z" stroke="#CCDDE2" stroke-width="0.84164" stroke-miterlimit="10"/>
<path d="M34.3271 87.2869C34.3271 87.2509 34.342 87.2169 34.3483 87.1724" stroke="#CCDDE2" stroke-width="0.84164" stroke-miterlimit="10"/>
<path d="M30.1168 92.7777V92.8116C30.1189 92.7976 30.1189 92.7833 30.1168 92.7692C30.1168 92.7544 30.1168 92.7395 30.1168 92.712C30.1134 92.6881 30.1134 92.6638 30.1168 92.6399C30.1136 92.6858 30.1136 92.7318 30.1168 92.7777V92.7777Z" stroke="#CCDDE2" stroke-width="0.84164" stroke-miterlimit="10"/>
<path d="M44.3949 79.2352C36.7905 87.4184 33.2162 104.675 31.8233 113.579C31.7089 114.332 31.6113 115.019 31.5181 115.638" stroke="#CCDDE2" stroke-width="0.84164" stroke-miterlimit="10"/>
<path d="M45.0967 120.651L41.5987 141.292C41.5158 141.856 41.2364 142.372 40.8097 142.75C40.383 143.128 39.8364 143.343 39.2667 143.357H20.9795C20.4049 143.342 19.8543 143.123 19.4269 142.738C18.9994 142.354 18.7231 141.83 18.6475 141.26L15.4209 120.651H45.0967Z" stroke="#CCDDE2" stroke-width="0.84164" stroke-miterlimit="10"/>
<path d="M48.4187 118.349C48.3868 118.96 48.1254 119.537 47.6868 119.964C47.2482 120.391 46.6646 120.636 46.0527 120.651H14.5135C13.9077 120.637 13.3293 120.396 12.8919 119.977C12.4545 119.558 12.1898 118.99 12.1497 118.385V118.385C12.0161 116.914 13.1122 115.629 14.5135 115.629H46.0527C47.4392 115.64 48.531 116.88 48.4187 118.349Z" stroke="#CCDDE2" stroke-width="0.84164" stroke-miterlimit="10"/>
<path d="M30.1381 92.8201C30.1376 92.774 30.1297 92.7281 30.1147 92.6844L30.1381 92.8201Z" stroke="#CCDDE2" stroke-width="0.84164" stroke-miterlimit="10"/>
<path d="M14.5093 73.4009C21.8084 82.8815 25.2428 102.869 26.5933 113.187C26.7078 114.082 26.8053 114.902 26.8922 115.636" stroke="#CCDDE2" stroke-width="0.84164" stroke-miterlimit="10"/>
<path d="M30.7805 83.4752C29.8667 86.2884 29.8222 89.1292 29.9325 90.9291C29.9616 91.5101 30.0232 92.0891 30.1169 92.6632" stroke="#CCDDE2" stroke-width="0.84164" stroke-miterlimit="10"/>
<path d="M149.492 65.5378C149 65.7074 148.517 65.8876 148.033 66.0721L147.639 66.2226C146.498 66.6466 145.379 67.1003 144.294 67.5709C143.92 67.7278 143.556 67.8847 143.189 68.0564C142.892 68.1857 142.602 68.3129 142.311 68.4486L142.174 68.5143C141.786 68.6924 141.4 68.8705 141.02 69.057C140.641 69.2436 140.204 69.4492 139.803 69.6549C139.591 69.7482 139.409 69.8478 139.216 69.9496C138.843 70.134 138.476 70.3269 138.109 70.5198C138.006 70.5771 137.897 70.6258 137.806 70.6831C137.433 70.8845 137.06 71.0838 136.693 71.2915C136.39 71.4548 136.1 71.618 135.801 71.7897C125.292 77.783 116.343 86.1689 109.68 96.2672C94.783 118.648 94.0983 143.331 94.0707 145.517L94.0347 145.453C92.2518 133.868 89.5233 123.829 86.0953 115.137L86.3645 114.253L85.896 114.618C85.896 114.618 85.896 114.618 85.896 114.603C86.568 99.884 89.4491 87.5774 93.581 77.3038L93.969 77.3908C93.8926 77.2318 93.8163 77.0685 93.74 76.9116C100.961 59.2224 111.908 47.6217 121.624 40.2632C133.072 31.5966 142.839 28.7898 142.839 28.7898C148.054 35.2346 149.242 54.9294 149.492 65.5378Z" stroke="#CCDDE2" stroke-width="0.84164" stroke-miterlimit="10"/>
<path d="M150.185 141.684C148.664 141.379 147.175 141.014 145.716 140.59C139.733 138.841 132.784 135.856 130.401 129.581C129.805 127.96 129.617 126.216 129.854 124.505C130.091 122.794 130.746 121.168 131.76 119.77C132.835 118.279 134.346 117.158 136.085 116.562C139.869 115.339 144.056 117.245 146.863 120.064C149.67 122.884 151.476 126.513 153.675 129.829C151.686 125.377 149.668 120.796 149.394 115.928C149.182 112.133 150.213 108.018 152.829 105.167C155.237 102.542 160.868 100.488 164.183 102.411C166.371 103.683 167.245 106.388 167.62 108.89C168.65 115.735 167.327 122.691 166.011 129.488C166.895 125.854 167.845 122.186 169.647 118.909C171.449 115.631 174.211 112.735 177.749 111.521C180.228 110.673 183.17 110.764 185.246 112.369C187.181 113.853 188.046 116.382 188.313 118.811C188.758 122.886 187.8 127.018 186.151 130.768C179.996 144.767 162.928 144.228 150.185 141.684Z" fill="white"/>
<path d="M164.071 134.754C164.071 134.754 173.558 137.389 176.908 124.202L164.071 134.754Z" fill="white"/>
<path d="M159.85 112.246C157.213 118.224 159.85 136.161 159.85 136.161V112.246Z" fill="white"/>
<path d="M151.058 134.347C150.662 134.279 146.857 133.747 143.613 132.256C141.101 131.103 138.924 129.373 138.924 126.842" fill="white"/>
<path d="M144.374 126.844C144.374 126.844 140.666 131.167 143.613 132.258L144.374 126.844Z" fill="white"/>
<path d="M141.913 136.191C142.441 135.458 145.186 136.929 146.98 133.467L141.913 136.191Z" fill="white"/>
<path d="M158.678 120.16C157.741 119.456 155.286 120.16 154.925 114.531L158.678 120.16Z" fill="white"/>
<path d="M159.087 125.434C159.087 125.434 163.191 123.95 163.191 120.738L159.087 125.434Z" fill="white"/>
<path d="M167.908 134.83C167.908 134.83 170.049 129.303 170.929 126.842L167.908 134.83Z" fill="white"/>
<path d="M174.557 129.549C174.557 129.549 176.908 131.413 179.721 128.423L174.557 129.549Z" fill="white"/>
<path d="M174.557 126.844C174.557 126.844 173.039 126.185 173.743 122.392L174.557 126.844Z" fill="white"/>
<path d="M150.185 141.684C148.65 141.472 147.173 141.016 145.716 140.59C139.733 138.841 132.784 135.856 130.401 129.581C129.805 127.96 129.617 126.216 129.854 124.505C130.091 122.794 130.746 121.168 131.76 119.77C132.835 118.279 134.346 117.158 136.085 116.562C139.869 115.339 144.056 117.245 146.863 120.064C149.67 122.884 151.476 126.513 153.675 129.829C151.686 125.377 149.668 120.796 149.394 115.928C149.182 112.133 150.213 108.018 152.829 105.167C155.237 102.542 160.868 100.488 164.183 102.411C166.371 103.683 167.245 106.388 167.62 108.89C168.65 115.735 167.327 122.691 166.011 129.488C166.895 125.854 167.845 122.186 169.647 118.909C171.449 115.631 174.211 112.735 177.749 111.521C180.228 110.673 183.17 110.764 185.246 112.369C187.181 113.853 188.046 116.382 188.313 118.811C188.758 122.886 187.857 127.045 186.151 130.768C179.897 144.398 162.697 143.367 150.185 141.684Z" stroke="#CCDDE2" stroke-width="0.84164" stroke-miterlimit="10"/>
<path d="M164.071 134.754C164.071 134.754 173.558 137.389 176.908 124.202" stroke="#CCDDE2" stroke-width="0.84164" stroke-miterlimit="10"/>
<path d="M159.85 112.246C157.213 118.224 159.85 136.161 159.85 136.161" stroke="#CCDDE2" stroke-width="0.84164" stroke-miterlimit="10"/>
<path d="M151.058 134.347C150.662 134.279 146.857 133.747 143.613 132.256C141.101 131.103 138.924 129.373 138.924 126.842" stroke="#CCDDE2" stroke-width="0.84164" stroke-miterlimit="10"/>
<path d="M144.374 126.844C144.374 126.844 140.666 131.167 143.613 132.258" stroke="#CCDDE2" stroke-width="0.84164" stroke-miterlimit="10"/>
<path d="M141.913 136.191C142.441 135.458 145.186 136.929 146.98 133.467" stroke="#CCDDE2" stroke-width="0.84164" stroke-miterlimit="10"/>
<path d="M158.678 120.16C157.741 119.456 155.286 120.16 154.925 114.531" stroke="#CCDDE2" stroke-width="0.84164" stroke-miterlimit="10"/>
<path d="M159.087 125.434C159.087 125.434 163.191 123.95 163.191 120.738" stroke="#CCDDE2" stroke-width="0.84164" stroke-miterlimit="10"/>
<path d="M167.908 134.83C167.908 134.83 170.049 129.303 170.929 126.842" stroke="#CCDDE2" stroke-width="0.84164" stroke-miterlimit="10"/>
<path d="M174.557 129.549C174.557 129.549 176.908 131.413 179.721 128.423" stroke="#CCDDE2" stroke-width="0.84164" stroke-miterlimit="10"/>
<path d="M174.557 126.844C174.557 126.844 173.039 126.185 173.743 122.392" stroke="#CCDDE2" stroke-width="0.84164" stroke-miterlimit="10"/>
<path d="M175.203 93.8632C177.099 95.4965 178.791 97.3521 180.242 99.39C182.911 103.039 184.421 107.406 184.576 111.923" stroke="#CCDDE2" stroke-width="0.84164" stroke-miterlimit="10"/>
<path d="M109.087 19.1226C112.903 16.8245 116.882 14.7829 121.113 13.3413C131.665 9.73733 143.429 10.5366 151.788 18.4463C159.034 25.296 162.46 35.472 163.159 45.224C163.159 45.3661 163.183 45.5166 163.189 45.6671C163.509 50.6915 163.246 56.2395 163.21 61.7918" stroke="#CCDDE2" stroke-width="0.84164" stroke-miterlimit="10"/>
<path d="M25.9085 61.4844C26.8646 55.3809 25.6965 49.64 25.0605 43.3584C23.4239 26.992 28.6285 7.40957 47.4816 4.96097C57.7255 3.62537 66.0401 7.45198 72.9662 14.7914C74.5222 16.4387 76.0783 18.3742 77.7256 20.2441" stroke="#CCDDE2" stroke-width="0.84164" stroke-miterlimit="10"/>
<path d="M18.5563 115.536C18.5563 115.536 4.27808 109.248 5.70696 97.4333C6.10552 94.0985 7.67644 91.1156 9.66076 88.3745" stroke="#CCDDE2" stroke-width="0.84164" stroke-miterlimit="10"/>
<path d="M147.516 123.414C146.973 123.022 146.408 122.651 145.82 122.299C139.956 118.828 131.966 117.482 125.267 117.079C124.858 117.05 124.455 117.028 124.056 117.011C123.528 116.988 123.012 116.85 122.543 116.607C122.056 116.361 121.634 116.006 121.309 115.57C120.98 114.278 120.585 113.005 120.126 111.754L119.184 107.514C118.833 106.287 118.558 105.041 118.36 103.781C117.385 97.4057 116.664 89.4832 116.409 86.5174C116.44 86.5304 116.472 86.5397 116.505 86.5449L119.416 87.4777C119.426 87.4768 119.437 87.4768 119.447 87.4777L120.48 87.7809C124.482 88.9172 128.682 89.7694 132.852 89.8606C136.783 89.9433 141.095 89.2988 144.453 87.1237C144.735 86.9456 145.01 86.7548 145.275 86.5513C147.866 84.6009 149.666 81.6074 150.686 78.5695C152.562 72.9503 152.967 66.9442 151.862 61.124C151.549 59.5214 151.108 57.9462 150.546 56.4133C149.062 52.3323 146.918 48.5079 145.078 44.5413C144.654 43.617 144.048 42.6482 143.974 41.6221C143.885 40.3989 144.512 39.2223 144.709 38.0329C144.939 36.6038 145.045 35.1576 145.027 33.7103C145.025 31.9934 144.696 30.2927 144.058 28.6986C143.509 27.3587 142.534 25.1115 140.802 25.1942C140.247 23.4177 139.318 21.3613 137.684 21.1302C137.259 21.0652 136.827 21.1703 136.479 21.4228C136.36 21.2509 136.23 21.086 136.091 20.9288C135.409 20.1613 134.118 19.4702 133.081 19.8688C131.025 20.6829 131.966 23.5131 132.986 25.6606C132.461 25.5476 131.922 25.5119 131.387 25.5546C130.189 25.6606 128.803 26.144 128.339 27.2973C128.086 27.9333 128.175 29.0802 128.82 29.4406C129.638 29.8879 130.643 29.5911 131.461 30.0109C132.375 30.4815 132.733 31.7429 132.6 32.6969C132.574 33.0709 132.425 33.4258 132.176 33.706C130.73 35.1519 129.738 31.162 129.189 30.5048C128.442 29.6081 127.349 29.7713 126.571 30.5281C125.034 32.0121 125.701 35.0013 126.346 36.7949C127.045 38.758 127.955 40.8229 129.407 42.3514C131.822 44.8848 132.087 48.9234 132.725 52.1903C132.988 53.5407 133.24 54.9039 133.444 56.2649C133.846 58.9065 134.08 61.5649 133.868 64.2319C133.814 64.964 133.609 65.6771 133.267 66.3264C132.925 66.9757 132.452 67.5472 131.878 68.0051C131.304 68.463 130.642 68.7973 129.933 68.9871C129.224 69.1768 128.483 69.218 127.758 69.1079C126.03 68.845 124.007 68.5313 121.854 68.1942C121.854 68.1942 121.87 68.1772 121.881 68.173C118.945 67.1745 116.348 67.0515 113.764 66.9158C106.473 65.788 99.9263 64.728 99.9263 64.728C99.7773 64.7004 99.6425 64.6219 99.5451 64.5059C99.4476 64.3898 99.3935 64.2435 99.3921 64.092L99.3031 55.9978C99.8013 56.6084 100.882 56.6932 101.544 56.3391C101.807 56.2051 102.023 55.9947 102.164 55.7355C102.305 55.4763 102.365 55.1805 102.335 54.8869C102.763 54.8834 103.185 54.775 103.562 54.5711C103.674 54.5086 103.781 54.4377 103.882 54.3591C104.092 54.1715 104.26 53.9431 104.378 53.6879C104.496 53.4326 104.56 53.156 104.567 52.8751C104.576 52.7199 104.568 52.5642 104.544 52.4108C104.544 52.3535 104.527 52.2984 104.516 52.2369C104.493 52.1182 104.465 52.0016 104.431 51.8765C104.414 51.8045 104.393 51.7324 104.37 51.6645C104.315 51.4525 104.253 51.2405 104.207 51.0285C104.231 51.0317 104.256 51.0317 104.281 51.0285C104.49 51.0167 104.698 50.9869 104.902 50.9395C105.096 50.8932 105.286 50.8293 105.468 50.7487C105.57 50.7034 105.67 50.6524 105.767 50.5961C105.784 50.5902 105.799 50.5808 105.811 50.5685C105.976 50.4679 106.131 50.3538 106.276 50.2272C106.325 50.1868 106.372 50.1437 106.416 50.0979C106.498 50.0202 106.577 49.9381 106.651 49.8519C106.746 49.741 106.834 49.6249 106.916 49.5043C106.956 49.453 106.991 49.3984 107.022 49.341C107.316 48.869 107.531 48.3519 107.658 47.8104C107.669 47.7595 107.681 47.7086 107.692 47.6599C108.116 45.6416 107.48 43.3372 105.708 42.5846C105.354 42.4341 104.099 42.2878 104.099 41.7557C104.099 41.7176 104.105 41.6798 104.115 41.6433C104.113 41.6357 104.113 41.6276 104.115 41.62C104.149 41.5409 104.197 41.469 104.258 41.408C104.285 41.3741 104.323 41.3401 104.357 41.3062C104.431 41.2405 104.514 41.179 104.592 41.1154C104.673 41.0623 104.75 41.0042 104.824 40.9416C104.855 40.9156 104.884 40.888 104.913 40.8589C104.968 40.7974 105.025 40.7359 105.076 40.6745C105.126 40.6138 105.173 40.5501 105.216 40.4837C105.26 40.4158 105.305 40.348 105.345 40.2717C105.389 40.2048 105.427 40.1338 105.457 40.0597C105.521 39.9339 105.574 39.8026 105.614 39.6675C105.686 39.4453 105.731 39.2154 105.748 38.9827C105.748 38.9 105.748 38.8152 105.748 38.7304C105.748 36.8691 104.23 34.942 102.311 34.7385C102.001 34.7045 101.687 34.7415 101.393 34.8466C101.249 34.8966 101.107 34.9546 100.969 35.0204L100.757 35.1201C100.613 35.1879 100.467 35.26 100.316 35.3321C100.19 35.3925 100.052 35.4271 99.9115 35.4338C99.8794 35.4327 99.8474 35.4285 99.8161 35.4211L99.7546 35.4041C99.7101 35.3943 99.6695 35.3715 99.638 35.3384C99.6008 35.3113 99.5697 35.2766 99.5469 35.2367C99.5278 35.1978 99.5142 35.1564 99.5066 35.1137C99.5051 35.1111 99.5043 35.1082 99.5043 35.1052C99.5043 35.1022 99.5051 35.0993 99.5066 35.0968C99.4959 35.0473 99.4909 34.9968 99.4917 34.9462C99.4915 34.8414 99.5065 34.7372 99.5363 34.6367C99.5961 34.4177 99.6261 34.1917 99.6253 33.9647C99.625 33.8824 99.6193 33.8003 99.6083 33.7188C99.5976 33.6055 99.5806 33.493 99.5575 33.3817C99.3499 32.5615 98.8568 31.8422 98.1667 31.3528C96.2227 29.9791 92.5784 29.9727 91.5735 32.5188C91.5523 32.557 91.5417 32.5973 91.5248 32.6354C91.3955 32.4849 91.2661 32.328 91.1368 32.1711C91.0473 32.1136 90.9538 32.0626 90.857 32.0185C89.5108 31.4313 87.5837 31.6835 86.6021 32.8326C85.7881 33.7866 85.5209 35.26 86.2439 36.3412C85.8385 35.8175 85.2887 35.424 84.6623 35.2091C84.7371 35.4188 84.8368 35.6188 84.9591 35.8048C84.9017 35.7267 84.8401 35.6517 84.7747 35.5801C84.7238 35.5229 84.6729 35.472 84.6221 35.4232C84.5712 35.3745 84.4991 35.3045 84.4376 35.2536C84.3761 35.2027 84.3083 35.1476 84.2426 35.0968C82.9812 34.1724 81.1241 34.077 79.9475 35.2324C79.0274 36.1355 78.8366 37.3842 79.1631 38.5947C79.4895 39.8053 80.2718 40.6469 80.8591 41.6899C78.8684 42.1903 77.2763 44.3972 77.9038 46.4663C78.0348 46.8943 78.2644 47.2856 78.574 47.6089C78.8837 47.9321 79.2647 48.1783 79.6867 48.3277C79.8378 48.3656 79.9916 48.3918 80.1467 48.4061C80.1986 48.4114 80.2488 48.4274 80.2942 48.453C80.3396 48.4785 80.3792 48.5132 80.4106 48.5548C80.4421 48.5963 80.4646 48.6439 80.4768 48.6946C80.489 48.7452 80.4907 48.7979 80.4817 48.8492C80.4501 48.9883 80.4337 49.1305 80.4329 49.2732C80.4342 49.6147 80.5234 49.9502 80.692 50.2473C80.8606 50.5443 81.1028 50.7929 81.3954 50.9692C81.4389 50.9934 81.4769 51.0263 81.5072 51.0658C81.5374 51.1053 81.5593 51.1506 81.5714 51.1988C81.5835 51.2471 81.5856 51.2973 81.5776 51.3464C81.5696 51.3955 81.5516 51.4425 81.5247 51.4843C81.23 51.9035 81.0568 52.396 81.0243 52.9074C80.9918 53.4188 81.1011 53.9292 81.3403 54.3824C81.9954 55.6947 83.6002 56.8331 85.1139 56.3837C85.6009 56.236 86.0223 55.9254 86.3075 55.5039C86.338 55.472 86.3643 55.4363 86.3859 55.3979C86.3914 55.3852 86.3993 55.3737 86.4092 55.3639C86.6272 55.0385 86.7719 54.6696 86.8332 54.2827C87.2062 54.874 87.6236 55.436 88.0819 55.9639L88.3575 56.2713L87.5201 61.4356L87.3971 62.3663C87.3517 62.6883 87.1916 62.9831 86.9462 63.1965C86.7009 63.41 86.3867 63.5277 86.0615 63.5281C85.8771 63.5281 85.6863 63.5281 85.5019 63.5281C85.1266 63.5281 84.7556 63.5387 84.3867 63.5493C83.2653 63.5768 82.148 63.6277 81.0329 63.6955C80.1849 63.7507 79.356 63.8121 78.5228 63.8863C78.0988 63.9203 77.6918 63.9584 77.272 64.0029C76.8523 64.0475 76.4367 64.0877 76.0212 64.1323C75.2093 64.2234 74.3909 64.3167 73.5769 64.4248C72.5953 64.5541 71.6201 64.6877 70.6385 64.8276C69.1037 65.0523 67.573 65.2983 66.036 65.5633C64.5393 65.8219 63.0489 66.0911 61.5522 66.3646C59.4492 66.7526 57.3249 67.0769 55.1922 67.4246C54.6322 67.5151 54.0593 67.485 53.5119 67.3364C52.9644 67.1878 52.455 66.9241 52.0175 66.5629C51.5801 66.2017 51.2248 65.7514 50.9753 65.2419C50.7257 64.7325 50.5878 64.1756 50.5706 63.6086C50.3311 56.6126 54.2933 43.8523 54.2933 43.8523C54.3845 42.8602 55.5653 42.1563 56.2565 41.5924C58.2344 40.03 59.4025 37.2316 60.0852 34.8763C60.5685 33.1951 61.0265 30.7953 59.6039 29.4173C58.8238 28.6604 57.7299 28.4972 56.9857 29.3939C56.4367 30.0554 55.4445 34.041 53.9965 32.5951C53.7476 32.3149 53.5985 31.96 53.5725 31.586C53.4475 30.6342 53.7845 29.3727 54.7089 28.9C55.5272 28.476 56.5321 28.777 57.3504 28.3297C57.9864 27.9693 58.0839 26.816 57.8316 26.1864C57.3673 25.0331 55.983 24.5498 54.7831 24.4438C54.2479 24.4011 53.7094 24.4368 53.1846 24.5498C54.2043 22.4022 55.1477 19.572 53.0892 18.76C52.0525 18.3509 50.7572 19.0399 50.0788 19.8073C49.9409 19.9645 49.8121 20.1294 49.6929 20.3013C49.3447 20.0496 48.9115 19.9445 48.4867 20.0087C46.8437 20.2398 45.9257 22.2962 45.3703 24.0749C43.6552 23.9901 42.6842 26.1949 42.1288 27.5326C41.4993 29.0734 41.1649 30.7188 41.143 32.3831C41.09 34.1536 41.215 35.9249 41.5161 37.6704C41.656 38.423 41.9083 39.1396 42.0885 39.8752C42.2857 40.6766 42.0715 41.4716 41.7811 42.2242C40.6427 45.1053 39.0378 47.8019 37.8337 50.6618C36.528 53.6884 35.4812 56.8203 34.7045 60.0237C33.2078 66.3477 32.9004 73.0532 34.6494 79.3602C37.9566 91.2789 54.7131 87.3653 64.3125 84.0242C68.3256 82.6293 71.0965 81.3276 71.0965 81.3276C71.0965 81.3276 71.1177 82.2519 71.1177 83.8165V84.0285C71.1071 86.1485 70.9226 103.062 68.0733 115.481L67.9779 115.644C68.0013 115.627 68.0458 115.627 68.0733 115.778C67.9169 116.117 67.6662 116.404 67.3513 116.604C67.0363 116.805 66.6703 116.911 66.2968 116.91C59.4746 116.882 30.7465 117.851 36.1928 136.414C37.2125 139.901 39.8752 142.138 43.6128 143.461C46.5808 144.521 50.2293 144.981 54.27 145.015H54.2976C46.3985 146.511 44.5604 158.262 53.3733 160.039C56.7653 160.722 59.4513 158.525 62.4999 157.588C64.2422 157.073 66.0562 156.843 67.8719 156.906C69.0569 156.934 70.2384 157.045 71.4081 157.236C84.2151 159.333 97.2113 160.04 110.17 159.344C118.932 158.862 127.864 157.762 136.178 154.83C142.445 152.617 149.322 148.744 152.409 142.746C153.503 140.635 154.068 138.291 154.056 135.913C154.048 130.264 151.436 126.244 147.516 123.414Z" fill="white"/>
<path d="M15.3169 143.143L14.9968 142.839" stroke="#CCDDE2" stroke-width="0.84164" stroke-miterlimit="10"/>
<path d="M120.132 111.444L119.188 107.194C118.838 105.967 118.563 104.721 118.366 103.46C117.391 97.0856 116.67 89.1653 116.413 86.1994L119.453 87.1682L118.393 84.8086C118.393 84.8086 114.902 73.0575 121.887 67.8826C116.835 66.1632 112.788 67.0473 108.061 65.9597C106.24 65.5357 104.317 65.1647 102.192 64.817L100.655 64.5478C100.594 68.7242 97.6874 69.6719 95.2961 70.1255C89.4088 71.2534 85.3321 66.9582 85.5017 63.2186C78.9657 63.2928 72.5061 64.1556 66.0379 65.2538C66.8732 67.7045 68.6328 75.0482 63.6826 83.7317L64.3186 83.7105C68.3318 82.3134 71.1026 81.0138 71.1026 81.0138C71.1026 81.0138 71.1259 81.9382 71.1259 83.5027V83.7147C71.1153 85.822 70.9309 102.748 68.0816 115.165C67.8696 115.57 68.035 115.072 68.0816 115.521C67.9087 115.866 67.79 116.236 67.7297 116.617L67.8675 116.068C67.1001 117.168 69.0208 118.502 71.7959 119.174C79.0505 120.946 119.04 124.05 121.298 116.617C121.431 116.174 121.435 115.702 121.311 115.256C120.982 113.966 120.589 112.694 120.132 111.444Z" fill="#353642"/>
<path d="M67.8696 156.585C66.0559 156.525 64.2442 156.756 62.5039 157.27C59.4532 158.205 56.763 160.404 53.3752 159.719C44.5624 157.942 46.4025 146.191 54.3016 144.694C55.0585 144.677 55.8153 144.673 56.5658 144.673H56.6167C60.2546 144.673 63.7992 144.769 66.7079 143.764C66.4344 144.016 59.3472 150.302 67.8696 156.585Z" fill="#71DDB1"/>
<path d="M100.649 64.5393V64.5499C100.588 68.7263 97.6811 69.6739 95.2897 70.1276C89.4025 71.2555 85.3257 66.9604 85.4953 63.2207" stroke="black" stroke-width="0.84164" stroke-miterlimit="10"/>
<path d="M54.308 144.694C46.4089 146.191 44.5687 157.942 53.3815 159.719C56.7735 160.404 59.4596 158.205 62.5103 157.27C64.2519 156.756 66.0651 156.524 67.8802 156.585C69.0626 156.618 70.2413 156.732 71.4079 156.927C84.2145 159.028 97.2106 159.739 110.17 159.047C118.932 158.563 127.861 157.465 136.176 154.533C142.445 152.318 149.32 148.445 152.407 142.449C153.501 140.338 154.066 137.993 154.054 135.614C154.054 129.958 151.436 125.939 147.524 123.106C146.98 122.714 146.413 122.345 145.828 121.991C139.964 118.521 131.976 117.175 125.277 116.772C124.868 116.744 124.463 116.721 124.067 116.704C123.539 116.682 123.022 116.545 122.553 116.301C122.066 116.057 121.643 115.702 121.319 115.265C121.003 114.85 120.781 114.372 120.668 113.863L120.136 111.446L119.193 107.196L118.366 103.46C117.391 97.0856 116.67 89.1653 116.413 86.1994" stroke="black" stroke-width="0.84164" stroke-miterlimit="10"/>
<path d="M128.048 138.994C125.434 144.97 118.97 142.924 111.868 138.623C107.461 135.954 103.7 135.574 101.48 135.655C104.609 135.375 107.344 134.41 108.114 130.872C108.735 127.997 107.115 125.36 104.313 124.512C111.05 124.215 117.963 124.724 123.446 128.964C123.45 128.964 130.666 133.011 128.048 138.994Z" fill="#71DDB1"/>
<path d="M104.268 50.6936C104.244 50.6967 104.22 50.6967 104.196 50.6936C104.262 51.0243 104.387 51.3784 104.469 51.7303C104.536 51.9963 104.564 52.2704 104.554 52.5444C104.465 53.827 103.556 54.5223 102.322 54.5562C102.353 54.8506 102.294 55.1475 102.154 55.4078C102.013 55.6682 101.797 55.8798 101.533 56.0148C100.872 56.3625 99.7884 56.2841 99.2902 55.6714C98.7008 54.9612 98.9934 54.0793 99.3517 53.3012C99.481 53.0277 99.6103 52.7691 99.7163 52.5338C99.8456 52.2412 99.958 51.9508 100.058 51.654C100.411 50.5557 100.684 49.4334 100.876 48.2959C101.111 47.1469 101.266 45.9831 101.34 44.8127C101.262 44.5287 101.313 44.1174 101.2 43.8206C101.037 43.3625 100.742 42.9628 100.352 42.6715C99.5467 42.0779 98.474 42.1161 97.6175 41.5903C96.8421 41.1074 96.2303 40.4018 95.8622 39.5657C95.7901 39.3919 95.7222 39.1672 95.6205 38.9721C95.5751 38.8662 95.5062 38.772 95.4191 38.6965C95.0332 38.3722 94.8085 38.9446 94.5711 39.1672C94.3277 39.3919 94.0392 39.5623 93.7248 39.6668C93.4104 39.7714 93.0774 39.8077 92.7479 39.7735C92.4987 39.7407 92.2563 39.6691 92.0292 39.5615C91.8624 39.4709 91.7066 39.3613 91.5649 39.235C91.3966 39.0712 91.2007 38.9385 90.9862 38.8428C90.5834 38.6923 90.5621 39.358 90.5049 39.5891C90.4666 39.7888 90.3836 39.9772 90.2621 40.1402C90.1405 40.3032 89.9836 40.4366 89.8032 40.5303C89.5853 40.6374 89.3463 40.6946 89.1036 40.6978C88.8207 40.7092 88.5381 40.6712 88.2683 40.5855C88.0078 40.5081 87.76 40.3931 87.5327 40.2441C87.4919 40.2167 87.4442 40.2012 87.3951 40.1995C87.346 40.1977 87.2974 40.2098 87.2548 40.2343C87.2122 40.2588 87.1773 40.2948 87.1541 40.3381C87.1309 40.3814 87.1203 40.4304 87.1235 40.4795C87.202 42.6715 85.1519 43.4347 84.3103 43.6595C84.0274 47.2773 84.9116 50.8906 86.8331 53.969C86.7621 54.4145 86.5806 54.835 86.3052 55.1922C84.9208 55.5399 83.3224 55.1626 82.7224 53.969C82.0864 52.697 82.1733 50.9353 83.1612 50.0279C82.4765 49.9219 82.2857 48.9107 82.6779 48.3171C82.7118 48.2599 82.7266 48.2259 82.7054 48.1708C82.6206 47.9397 81.6136 47.7468 81.338 47.662C80.9448 47.5216 80.5897 47.2914 80.3012 46.9896C80.0126 46.6878 79.7985 46.3228 79.676 45.9236C79.093 44.0008 80.5727 41.9486 82.4214 41.4843C81.8723 40.5134 81.1494 39.729 80.842 38.6075C80.5346 37.486 80.7084 36.32 81.5649 35.472C81.9133 35.1407 82.339 34.9016 82.8032 34.7765C83.2675 34.6513 83.7556 34.6441 84.2234 34.7555C84.4961 34.9537 84.7377 35.1916 84.9399 35.4614C84.8155 35.2774 84.7157 35.0778 84.6431 34.8678C85.2705 35.0808 85.8208 35.4747 86.2246 35.9999C85.5017 34.9187 85.7709 33.4432 86.5829 32.4892C87.5645 31.3401 89.4937 31.0879 90.8378 31.6772C90.935 31.721 91.0292 31.7713 91.1197 31.8277C91.2469 31.9867 91.3762 32.1436 91.5055 32.2941C91.5198 32.2535 91.5368 32.2138 91.5564 32.1754C91.8293 32.4559 92.0876 32.7503 92.3302 33.0573C93.2037 30.5727 96.6741 30.5663 98.5079 31.8617C98.9398 32.1698 99.2935 32.575 99.5404 33.0446C99.6333 33.4573 99.6254 33.8864 99.517 34.2954C99.4047 34.6876 99.4937 34.9844 99.746 35.0692C99.9357 35.1154 100.136 35.0897 100.308 34.9971C100.98 34.694 101.535 34.323 102.315 34.4078C104.859 34.677 106.714 37.9842 105.207 40.1424C105.118 40.2764 105.016 40.402 104.904 40.5176C104.692 40.7296 104.215 40.9776 104.109 41.2808C104.106 41.2883 104.106 41.2966 104.109 41.3041C103.918 41.9401 105.326 42.0822 105.701 42.2454C109.025 43.6467 108.324 50.4816 104.268 50.6936Z" fill="#71DDB1"/>
<path d="M46.4767 33.4559C45.686 31.7726 46.2647 29.413 47.1657 27.6301C47.8547 26.2458 47.3056 24.0261 45.546 23.7781C43.7186 23.5322 42.6968 25.8366 42.1265 27.2273C41.4959 28.7686 41.1607 30.4148 41.1386 32.08C41.0918 33.8509 41.2217 35.6221 41.5265 37.3673C41.6664 38.1178 41.9187 38.8364 42.0968 39.57C42.294 40.3713 42.0798 41.1684 41.7894 41.9189C40.651 44.8 39.0482 47.4966 37.842 50.3565C36.5382 53.3837 35.4922 56.5154 34.715 59.7184C33.2182 66.0424 32.9087 72.748 34.6577 79.055C37.9649 90.9736 54.7235 87.0601 64.3208 83.719C68.3339 82.3219 71.1048 81.0223 71.1048 81.0223C71.1048 81.0223 71.1281 81.9466 71.1281 83.5112C71.1281 83.5833 71.1281 83.6575 71.1281 83.7232C71.1408 90.0132 70.8885 105.818 68.1792 115.207C68.0619 115.612 67.8156 115.968 67.4777 116.22C67.1398 116.472 66.7288 116.607 66.3072 116.604C59.485 116.577 30.759 117.546 36.2032 136.098C38.0434 142.365 45.1687 144.618 54.272 144.697H54.3122C55.0521 144.697 55.809 144.697 56.5764 144.675H56.6273C60.0089 144.558 63.3813 144.253 66.7291 143.762C78.5884 142.091 91.2066 138.525 99.358 135.956C99.828 135.832 100.308 135.752 100.793 135.716C100.995 135.693 101.217 135.676 101.467 135.665H101.489C103.704 135.576 107.465 135.956 111.877 138.633C118.979 142.935 125.445 144.981 128.056 139.004C130.668 133.028 123.45 128.964 123.45 128.964C117.967 124.724 111.054 124.222 104.317 124.512C102.237 124.603 100.168 124.777 98.1687 124.936C90.1678 125.573 82.1655 126.209 74.1618 126.844L63.6763 127.692" stroke="black" stroke-width="0.84164" stroke-miterlimit="10"/>
<path d="M49.3282 32.3323C49.3282 32.3323 48.1856 30.0236 49.5996 26.4132C50.1826 24.9292 50.8546 23.1336 50.579 21.5076C50.4928 20.9056 50.1729 20.3618 49.6886 19.9939C49.3405 19.7419 48.907 19.6375 48.4824 19.7034C46.8415 19.9324 45.9214 21.9909 45.366 23.7675" stroke="black" stroke-width="0.84164" stroke-miterlimit="10"/>
<path d="M51.7153 30.9924C51.7153 30.9924 50.6299 29.1544 52.1096 26.3284C52.3577 25.8578 52.7774 25.1052 53.1696 24.2487C54.1915 22.1012 55.1327 19.271 53.0742 18.4569C52.0375 18.0477 50.7422 18.7367 50.0638 19.5063C49.9259 19.6627 49.7971 19.827 49.678 19.9981" stroke="black" stroke-width="0.84164" stroke-miterlimit="10"/>
<path d="M53.176 24.236C53.7006 24.122 54.2393 24.0862 54.7744 24.13C55.9744 24.236 57.3587 24.7172 57.8251 25.8726C58.0774 26.5086 57.9862 27.6556 57.3418 28.0138C56.5234 28.4633 55.5207 28.1665 54.7024 28.5862C53.7886 29.0569 53.4304 30.3183 53.5639 31.2723C53.5898 31.6463 53.7389 32.0011 53.9879 32.2814C55.4338 33.7272 56.4259 29.7374 56.975 29.0802C57.7212 28.1834 58.813 28.3446 59.5932 29.1014C61.0178 30.4794 60.5578 32.8771 60.0723 34.5604C59.3918 36.9157 58.2237 39.7141 56.2563 41.2744C55.5525 41.8299 54.3822 42.5464 54.2932 43.5386C54.2932 43.5386 50.3309 56.2904 50.5684 63.2928C50.5856 63.8596 50.7235 64.4162 50.9729 64.9254C51.2223 65.4347 51.5774 65.885 52.0146 66.2461C52.4518 66.6073 52.9609 66.871 53.5082 67.0198C54.0554 67.1685 54.628 67.1989 55.1878 67.1088C57.3078 66.7632 59.4406 66.4388 61.5478 66.0488C63.0446 65.7753 64.5349 65.506 66.0316 65.2474C72.6863 64.1153 79.3304 63.2355 86.0572 63.2058C86.3823 63.2064 86.6966 63.0893 86.9421 62.8761C87.1876 62.663 87.3477 62.3682 87.3928 62.0462L87.52 61.124L88.3574 55.9491" stroke="black" stroke-width="0.84164" stroke-miterlimit="10"/>
<path d="M139.691 34.5774C140.482 32.8941 139.903 30.5345 139.002 28.7516C138.307 27.3672 138.862 25.1476 140.622 24.8996C140.683 24.8996 140.745 24.889 140.802 24.889C142.534 24.8042 143.509 27.0535 144.058 28.3933C144.697 29.9873 145.026 31.688 145.029 33.405C145.046 34.8524 144.938 36.2985 144.709 37.7277C144.514 38.9149 143.884 40.0936 143.976 41.3147C144.048 42.3408 144.654 43.3118 145.08 44.2361C146.918 48.1941 149.07 52.0165 150.545 56.1081C151.108 57.6403 151.548 59.2148 151.862 60.8166C152.97 66.6352 152.568 72.6406 150.696 78.26C149.674 81.3 147.876 84.2935 145.286 86.2439C145.017 86.446 144.742 86.6368 144.461 86.8163C141.103 88.9914 136.791 89.6359 132.863 89.5511C128.69 89.462 124.493 88.6098 120.488 87.4714C119.788 87.2707 119.092 87.0587 118.398 86.8354C117.668 86.6043 116.946 86.369 116.223 86.123C115.466 85.8602 114.709 85.5952 113.958 85.3153" stroke="black" stroke-width="0.84164" stroke-miterlimit="10"/>
<path d="M140.802 24.889C140.247 23.1124 139.318 21.0539 137.686 20.8249C137.261 20.759 136.827 20.8633 136.479 21.1154C135.995 21.4832 135.675 22.0271 135.589 22.629C135.313 24.2551 135.985 26.0486 136.568 27.5347C137.982 31.1387 136.838 33.4559 136.838 33.4559" stroke="black" stroke-width="0.84164" stroke-miterlimit="10"/>
<path d="M136.479 21.1154C136.361 20.9415 136.227 20.7804 136.093 20.6214C135.409 19.854 134.12 19.165 133.081 19.5741C131.024 20.3861 131.966 23.2184 132.988 25.366C133.39 26.214 133.81 26.975 134.048 27.4457C135.532 30.2759 134.44 32.1097 134.44 32.1097" stroke="black" stroke-width="0.84164" stroke-miterlimit="10"/>
<path d="M132.988 25.366C132.463 25.2523 131.925 25.2159 131.389 25.2579C130.189 25.366 128.805 25.8472 128.339 27.0026C128.086 27.6386 128.177 28.7855 128.822 29.1438C129.64 29.5933 130.643 29.2943 131.461 29.7162C132.375 30.1869 132.733 31.4483 132.6 32.4023C132.574 32.7762 132.425 33.1311 132.176 33.4114C130.73 34.8572 129.738 30.8674 129.189 30.2102C128.442 29.3113 127.351 29.4745 126.571 30.2314C125.034 31.7154 125.701 34.7046 126.346 36.5002C127.048 38.4612 127.955 40.5282 129.407 42.0546C131.824 44.5986 132.087 48.6266 132.727 51.8935C132.99 53.2461 133.242 54.6071 133.444 55.9703C133.846 58.6097 134.08 61.2703 133.868 63.9373C133.814 64.6694 133.609 65.3825 133.266 66.0319C132.924 66.6812 132.451 67.2527 131.877 67.7106C131.303 68.1684 130.641 68.5027 129.931 68.6924C129.222 68.8822 128.481 68.9233 127.756 68.8133C118.275 67.3611 99.9264 64.4121 99.9264 64.4121C99.7762 64.3862 99.6399 64.3083 99.5415 64.192C99.443 64.0757 99.3886 63.9285 99.3879 63.7761L99.2988 55.6799" stroke="black" stroke-width="0.84164" stroke-miterlimit="10"/>
<path d="M84.3017 43.6531C83.9137 47.8231 85.3617 52.538 88.0753 55.6459C93.1378 61.4356 97.4033 55.6459 97.4033 55.6459" stroke="black" stroke-width="0.84164" stroke-miterlimit="10"/>
<path d="M101.395 44.9463C101.247 44.6707 101.334 44.1725 101.207 43.8227C101.042 43.3644 100.748 42.9643 100.359 42.6715C99.5489 42.08 98.4783 42.1161 97.6239 41.5945C96.848 41.1091 96.2351 40.4025 95.8643 39.5657C95.7456 39.2986 95.6523 38.8915 95.4255 38.6986C95.0375 38.3743 94.8128 38.9445 94.5775 39.1693C94.2417 39.4822 93.8197 39.6871 93.3661 39.7574C92.9125 39.8277 92.4483 39.7602 92.0335 39.5636C91.6519 39.3749 91.3869 38.9954 90.9883 38.8449C90.5898 38.6944 90.5643 39.3579 90.505 39.5911C90.467 39.7907 90.3846 39.9791 90.2639 40.1424C90.1431 40.3057 89.9871 40.4397 89.8075 40.5345C89.1058 40.8801 88.1475 40.6533 87.537 40.2441C87.496 40.2159 87.448 40.1998 87.3983 40.1978C87.3486 40.1958 87.2994 40.208 87.2563 40.2328C87.2132 40.2577 87.1781 40.2943 87.155 40.3383C87.1319 40.3823 87.1217 40.432 87.1257 40.4815C87.2211 43.2375 83.9563 43.7315 83.9563 43.7315" stroke="black" stroke-width="0.84164" stroke-miterlimit="10"/>
<path d="M88.9086 49.7184C90.5408 49.7184 91.8639 48.3953 91.8639 46.7631C91.8639 45.131 90.5408 43.8078 88.9086 43.8078C87.2765 43.8078 85.9534 45.131 85.9534 46.7631C85.9534 48.3953 87.2765 49.7184 88.9086 49.7184Z" stroke="black" stroke-width="0.84164" stroke-miterlimit="10"/>
<path d="M96.5681 49.4555C98.2002 49.4555 99.5234 48.1324 99.5234 46.5002C99.5234 44.8681 98.2002 43.545 96.5681 43.545C94.9359 43.545 93.6128 44.8681 93.6128 46.5002C93.6128 48.1324 94.9359 49.4555 96.5681 49.4555Z" stroke="black" stroke-width="0.84164" stroke-miterlimit="10"/>
<path d="M87.6726 47.0599C87.6726 47.0599 88.864 48.4273 90.0894 47.0599" stroke="black" stroke-width="0.84164" stroke-miterlimit="10"/>
<path d="M95.364 47.0599C95.364 47.0599 96.5555 48.4273 97.7829 47.0599" stroke="black" stroke-width="0.84164" stroke-miterlimit="10"/>
<path d="M93.0934 53.5789C93.6683 53.5789 94.1343 53.1129 94.1343 52.538C94.1343 51.9631 93.6683 51.4971 93.0934 51.4971C92.5185 51.4971 92.0525 51.9631 92.0525 52.538C92.0525 53.1129 92.5185 53.5789 93.0934 53.5789Z" stroke="black" stroke-width="0.84164" stroke-miterlimit="10"/>
<path d="M91.8638 46.7631C91.8638 46.7631 92.5337 45.6713 93.6128 46.5002" stroke="black" stroke-width="0.84164" stroke-miterlimit="10"/>
<path d="M90.5049 42.3768C90.5049 42.3768 87.4373 40.0321 84.8657 42.2433" stroke="black" stroke-width="0.84164" stroke-miterlimit="10"/>
<path d="M99.481 41.1472C99.481 41.1472 95.8367 39.8752 94.0771 42.769" stroke="black" stroke-width="0.84164" stroke-miterlimit="10"/>
<path d="M86.7355 53.8672C86.7283 54.3586 86.5669 54.8353 86.2739 55.2298C85.981 55.6243 85.5714 55.9168 85.1031 56.0657C83.5894 56.513 81.9867 55.3767 81.3295 54.0644C81.0899 53.6109 80.9806 53.0999 81.0135 52.588C81.0464 52.0761 81.2203 51.5834 81.516 51.1642C81.5424 51.1223 81.56 51.0754 81.5677 51.0264C81.5754 50.9775 81.573 50.9275 81.5607 50.8794C81.5484 50.8314 81.5264 50.7864 81.4962 50.7472C81.4659 50.7079 81.4279 50.6753 81.3846 50.6512C81.0903 50.4742 80.847 50.2239 80.6783 49.9248C80.5096 49.6257 80.4213 49.288 80.4221 48.9446C80.4228 48.802 80.4384 48.6599 80.4687 48.5206C80.4784 48.4691 80.4772 48.4161 80.4653 48.3651C80.4533 48.314 80.4309 48.2661 80.3994 48.2242C80.3679 48.1823 80.328 48.1474 80.2823 48.1218C80.2365 48.0962 80.186 48.0804 80.1338 48.0754C79.9795 48.0613 79.8264 48.0358 79.6759 47.9991C79.2541 47.8494 78.8731 47.6032 78.5636 47.2799C78.254 46.9567 78.0243 46.5656 77.8929 46.1377C77.2569 44.0686 78.8575 41.8596 80.8482 41.3614C80.2546 40.3183 79.4681 39.4767 79.1522 38.2662C78.8363 37.0556 79.0187 35.8048 79.9366 34.9017C81.3676 33.5004 83.795 33.9371 84.9483 35.4741C84.1703 34.3081 84.4607 32.7181 85.3363 31.6963C86.3963 30.4624 88.4633 30.1932 89.9112 30.8207C90.6002 31.1239 91.0433 31.7514 91.5139 32.3047C92.4552 29.642 96.1779 29.625 98.158 31.02C99.1883 31.7556 99.854 33.0891 99.5254 34.306C99.3516 34.9229 99.6717 35.2918 100.316 35.0077C100.961 34.7236 101.544 34.3336 102.324 34.4184C105.025 34.7046 106.943 38.404 104.912 40.5282C104.7 40.7529 104.223 40.9882 104.117 41.2914C103.886 41.9274 105.322 42.0928 105.703 42.256C109.057 43.6637 108.321 50.5706 104.219 50.7106C104.342 51.2978 104.622 51.9486 104.577 52.555C104.488 53.8376 103.579 54.5329 102.345 54.5732C102.375 54.8665 102.316 55.1622 102.175 55.4213C102.035 55.6805 101.819 55.891 101.556 56.0254C100.895 56.3773 99.8116 56.2946 99.3134 55.682C98.5163 54.7195 99.3346 53.4581 99.7374 52.538C100.331 51.1918 100.624 49.7396 100.893 48.298C101.139 47.1035 101.298 45.8926 101.368 44.6749V44.624" stroke="black" stroke-width="0.84164" stroke-miterlimit="10"/>
<path d="M0.600098 143.143H43.6849" stroke="black" stroke-width="0.84164" stroke-miterlimit="10"/>
<path d="M152.099 143.143H191.4" stroke="black" stroke-width="0.84164" stroke-miterlimit="10"/>
</g>
<defs>
<clipPath id="clip0_89_5497">
<rect width="192" height="161" fill="white"/>
</clipPath>
</defs>
</svg>
