<svg width="22" height="19" viewBox="0 0 22 19" fill="none" xmlns="http://www.w3.org/2000/svg">
<path fill-rule="evenodd" clip-rule="evenodd" d="M9.69795 0.799014C10.0605 0.488089 10.5223 0.317169 11 0.317169C11.4776 0.317169 11.9394 0.488089 12.302 0.799014L18.638 6.22901L21.125 8.21901C21.2275 8.30109 21.3129 8.40256 21.3763 8.51764C21.4396 8.63272 21.4797 8.75915 21.4941 8.88971C21.5086 9.02026 21.4973 9.1524 21.4607 9.27856C21.4241 9.40473 21.363 9.52245 21.281 9.62501C21.1989 9.72758 21.0974 9.81297 20.9823 9.87631C20.8672 9.93966 20.7408 9.97972 20.6103 9.99421C20.4797 10.0087 20.3476 9.99732 20.2214 9.96074C20.0952 9.92416 19.9775 9.86309 19.875 9.78101L19 9.08101V17C19 17.5304 18.7892 18.0392 18.4142 18.4142C18.0391 18.7893 17.5304 19 17 19H13V14C13 13.4696 12.7892 12.9609 12.4142 12.5858C12.0391 12.2107 11.5304 12 11 12C10.4695 12 9.96081 12.2107 9.58574 12.5858C9.21067 12.9609 8.99995 13.4696 8.99995 14V19H4.99995C4.46952 19 3.96081 18.7893 3.58574 18.4142C3.21067 18.0392 2.99995 17.5304 2.99995 17V9.08001L2.12495 9.78001C2.02309 9.867 1.90478 9.93263 1.77707 9.97301C1.64935 10.0134 1.51482 10.0277 1.38146 10.0151C1.24811 10.0025 1.11865 9.96322 1.00076 9.89962C0.882872 9.83601 0.778965 9.74938 0.695205 9.64484C0.611446 9.54031 0.549541 9.42002 0.513165 9.2911C0.476789 9.16218 0.466684 9.02727 0.48345 8.89438C0.500215 8.76148 0.543509 8.63331 0.610762 8.51746C0.678016 8.40162 0.767857 8.30047 0.874953 8.22001L3.36195 6.23001L9.69795 0.799014Z" fill=""/>
</svg>
