<svg width="20" height="20" viewBox="0 0 20 20" fill="none" xmlns="http://www.w3.org/2000/svg">
<path d="M11.6669 5.41672C11.6669 7.7179 9.80139 9.58328 7.50021 9.58328C5.19904 9.58328 3.3335 7.7179 3.3335 5.41672C3.3335 3.11554 5.19904 1.25 7.50021 1.25C9.80139 1.25 11.6669 3.11554 11.6669 5.41672Z" fill=""/>
<path d="M11.0417 11.25H3.95828C1.77582 11.25 0 13.0258 0 15.2083V18.125C0 18.47 0.279999 18.75 0.625 18.75H14.375C14.72 18.75 15 18.47 15 18.125V15.2083C15 13.0258 13.2242 11.25 11.0417 11.25Z" fill=""/>
<path d="M19.8007 8.29163L16.8839 5.58334C16.7664 5.47409 16.6131 5.41748 16.459 5.41748C16.0456 5.41748 15.8331 5.7692 15.8331 6.04172V7.91672H12.4998C12.039 7.91672 11.6665 8.28995 11.6665 8.75C11.6665 9.21005 12.039 9.58328 12.4998 9.58328H15.8331V11.4583C15.8331 11.805 16.1147 12.0833 16.4581 12.0833C16.6131 12.0833 16.7657 12.0259 16.8839 11.9167L19.8007 9.20837C19.9273 9.08997 19.9998 8.92334 19.9998 8.75C19.9998 8.57666 19.9273 8.41003 19.8007 8.29163Z" fill=""/>
</svg>
