<svg width="20" height="21" viewBox="0 0 20 21" fill="none" xmlns="http://www.w3.org/2000/svg">
<path d="M0.914787 7.42078C1.34925 6.07709 2.06495 4.84368 3.0093 3.7984C3.169 3.62164 3.41953 3.55864 3.64384 3.63884L5.90065 4.44579C6.5125 4.66443 7.18575 4.34568 7.4044 3.73383C7.4259 3.67367 7.44247 3.61185 7.45391 3.5491L7.88386 1.18909C7.92661 0.954439 8.10682 0.768829 8.34011 0.719173C9.02269 0.573884 9.72254 0.5 10.4316 0.5C11.1402 0.5 11.8396 0.573794 12.5218 0.718908C12.755 0.768519 12.9352 0.954012 12.9781 1.18857L13.4092 3.549C13.5258 4.1882 14.1385 4.61188 14.7777 4.49531C14.8405 4.48385 14.9023 4.46728 14.9624 4.44582L17.2193 3.63884C17.4436 3.55864 17.6941 3.62164 17.8538 3.7984C18.7982 4.84368 19.5139 6.07709 19.9484 7.42078C20.0217 7.64746 19.951 7.89597 19.7694 8.05016L17.9401 9.60321C17.4449 10.0238 17.3843 10.7662 17.8048 11.2615C17.8462 11.3102 17.8914 11.3554 17.9401 11.3968L19.7694 12.9498C19.951 13.104 20.0217 13.3525 19.9484 13.5792C19.5139 14.9229 18.7982 16.1563 17.8538 17.2016C17.6941 17.3784 17.4436 17.4414 17.2193 17.3612L14.9625 16.5542C14.3506 16.3356 13.6774 16.6543 13.4587 17.2662C13.4372 17.3263 13.4207 17.3882 13.4092 17.4512L12.9781 19.8114C12.9352 20.046 12.755 20.2315 12.5218 20.2811C11.8396 20.4262 11.1402 20.5 10.4316 20.5C9.72254 20.5 9.02269 20.4261 8.34011 20.2808C8.10682 20.2312 7.92661 20.0456 7.88386 19.8109L7.45393 17.451C7.33736 16.8118 6.72468 16.3881 6.08548 16.5047C6.02262 16.5162 5.96081 16.5327 5.90074 16.5542L3.64384 17.3612C3.41953 17.4414 3.169 17.3784 3.0093 17.2016C2.06495 16.1563 1.34925 14.9229 0.914787 13.5792C0.841492 13.3525 0.912165 13.104 1.09378 12.9498L2.923 11.3968C3.41829 10.9762 3.47886 10.2338 3.05831 9.73852C3.01696 9.68982 2.9717 9.64457 2.92303 9.60323L1.09378 8.05016C0.912165 7.89597 0.841492 7.64746 0.914787 7.42078ZM8.07863 10.5C8.07863 11.7995 9.13208 12.8529 10.4316 12.8529C11.7311 12.8529 12.7845 11.7995 12.7845 10.5C12.7845 9.20051 11.7311 8.14706 10.4316 8.14706C9.13208 8.14706 8.07863 9.20051 8.07863 10.5Z" fill=""/>
</svg>
